<!--?xml version="1.0" encoding="us-ascii" standalone="no"?--><svg xmlns="http://www.w3.org/2000/svg" xmlns:xlink="http://www.w3.org/1999/xlink" contentstyletype="text/css" height="444px" preserveAspectRatio="none" style="width:333px;height:444px;background:#FFFFFF;" version="1.1" viewBox="0 0 333 444" width="333px" zoomAndPan="magnify"><defs></defs><g><line style="stroke:#181818;stroke-width:0.5;stroke-dasharray:5.0,5.0;" x1="24" x2="24" y1="81.2969" y2="363.4922"></line><line style="stroke:#181818;stroke-width:0.5;stroke-dasharray:5.0,5.0;" x1="173" x2="173" y1="81.2969" y2="363.4922"></line><line style="stroke:#181818;stroke-width:0.5;stroke-dasharray:5.0,5.0;" x1="280" x2="280" y1="81.2969" y2="363.4922"></line><text fill="#000000" font-family="sans-serif" font-size="14" lengthAdjust="spacing" textLength="32" x="5" y="77.9951">User</text><ellipse cx="24" cy="13.5" fill="#E2E2F0" rx="8" ry="8" style="stroke:#181818;stroke-width:0.5;"></ellipse><path d="M24,21.5 L24,48.5 M11,29.5 L37,29.5 M24,48.5 L11,63.5 M24,48.5 L37,63.5 " fill="none" style="stroke:#181818;stroke-width:0.5;"></path><text fill="#000000" font-family="sans-serif" font-size="14" lengthAdjust="spacing" textLength="32" x="5" y="375.4873">User</text><ellipse cx="24" cy="387.2891" fill="#E2E2F0" rx="8" ry="8" style="stroke:#181818;stroke-width:0.5;"></ellipse><path d="M24,395.2891 L24,422.2891 M11,403.2891 L37,403.2891 M24,422.2891 L11,437.2891 M24,422.2891 L37,437.2891 " fill="none" style="stroke:#181818;stroke-width:0.5;"></path><text fill="#000000" font-family="sans-serif" font-size="14" lengthAdjust="spacing" textLength="84" x="128" y="77.9951">Bug Tracker</text><ellipse cx="173" cy="13.5" fill="#E2E2F0" rx="8" ry="8" style="stroke:#181818;stroke-width:0.5;"></ellipse><path d="M173,21.5 L173,48.5 M160,29.5 L186,29.5 M173,48.5 L160,63.5 M173,48.5 L186,63.5 " fill="none" style="stroke:#181818;stroke-width:0.5;"></path><text fill="#000000" font-family="sans-serif" font-size="14" lengthAdjust="spacing" textLength="84" x="128" y="375.4873">Bug Tracker</text><ellipse cx="173" cy="387.2891" fill="#E2E2F0" rx="8" ry="8" style="stroke:#181818;stroke-width:0.5;"></ellipse><path d="M173,395.2891 L173,422.2891 M160,403.2891 L186,403.2891 M173,422.2891 L160,437.2891 M173,422.2891 L186,437.2891 " fill="none" style="stroke:#181818;stroke-width:0.5;"></path><text fill="#000000" font-family="sans-serif" font-size="14" lengthAdjust="spacing" textLength="98" x="228" y="77.9951">Bug Database</text><path d="M262,29 C262,19 280,19 280,19 C280,19 298,19 298,29 L298,55 C298,65 280,65 280,65 C280,65 262,65 262,55 L262,29 " fill="#E2E2F0" style="stroke:#181818;stroke-width:1.5;"></path><path d="M262,29 C262,39 280,39 280,39 C280,39 298,39 298,29 " fill="none" style="stroke:#181818;stroke-width:1.5;"></path><text fill="#000000" font-family="sans-serif" font-size="14" lengthAdjust="spacing" textLength="98" x="228" y="375.4873">Bug Database</text><path d="M262,388.7891 C262,378.7891 280,378.7891 280,378.7891 C280,378.7891 298,378.7891 298,388.7891 L298,414.7891 C298,424.7891 280,424.7891 280,424.7891 C280,424.7891 262,424.7891 262,414.7891 L262,388.7891 " fill="#E2E2F0" style="stroke:#181818;stroke-width:1.5;"></path><path d="M262,388.7891 C262,398.7891 280,398.7891 280,398.7891 C280,398.7891 298,398.7891 298,388.7891 " fill="none" style="stroke:#181818;stroke-width:1.5;"></path><polygon fill="#181818" points="161,108.4297,171,112.4297,161,116.4297,165,112.4297" style="stroke:#181818;stroke-width:1.0;"></polygon><line style="stroke:#181818;stroke-width:1.0;stroke-dasharray:2.0,2.0;" x1="24" x2="167" y1="112.4297" y2="112.4297"></line><text fill="#000000" font-family="sans-serif" font-size="13" lengthAdjust="spacing" textLength="72" x="31" y="107.3638">Create Bug</text><polygon fill="#181818" points="268,137.5625,278,141.5625,268,145.5625,272,141.5625" style="stroke:#181818;stroke-width:1.0;"></polygon><line style="stroke:#181818;stroke-width:1.0;stroke-dasharray:2.0,2.0;" x1="173" x2="274" y1="141.5625" y2="141.5625"></line><text fill="#000000" font-family="sans-serif" font-size="13" lengthAdjust="spacing" textLength="64" x="180" y="136.4966">Store Bug</text><polygon fill="#181818" points="35,166.6953,25,170.6953,35,174.6953,31,170.6953" style="stroke:#181818;stroke-width:1.0;"></polygon><line style="stroke:#181818;stroke-width:1.0;stroke-dasharray:2.0,2.0;" x1="29" x2="172" y1="170.6953" y2="170.6953"></line><text fill="#000000" font-family="sans-serif" font-size="13" lengthAdjust="spacing" textLength="121" x="41" y="165.6294">Notify Bug Created</text><polygon fill="#181818" points="161,195.8281,171,199.8281,161,203.8281,165,199.8281" style="stroke:#181818;stroke-width:1.0;"></polygon><line style="stroke:#181818;stroke-width:1.0;stroke-dasharray:2.0,2.0;" x1="24" x2="167" y1="199.8281" y2="199.8281"></line><text fill="#000000" font-family="sans-serif" font-size="13" lengthAdjust="spacing" textLength="76" x="31" y="194.7622">Update Bug</text><polygon fill="#181818" points="268,224.9609,278,228.9609,268,232.9609,272,228.9609" style="stroke:#181818;stroke-width:1.0;"></polygon><line style="stroke:#181818;stroke-width:1.0;stroke-dasharray:2.0,2.0;" x1="173" x2="274" y1="228.9609" y2="228.9609"></line><text fill="#000000" font-family="sans-serif" font-size="13" lengthAdjust="spacing" textLength="76" x="180" y="223.895">Update Bug</text><polygon fill="#181818" points="35,254.0938,25,258.0938,35,262.0938,31,258.0938" style="stroke:#181818;stroke-width:1.0;"></polygon><line style="stroke:#181818;stroke-width:1.0;stroke-dasharray:2.0,2.0;" x1="29" x2="172" y1="258.0938" y2="258.0938"></line><text fill="#000000" font-family="sans-serif" font-size="13" lengthAdjust="spacing" textLength="125" x="41" y="253.0278">Notify Bug Updated</text><polygon fill="#181818" points="161,283.2266,171,287.2266,161,291.2266,165,287.2266" style="stroke:#181818;stroke-width:1.0;"></polygon><line style="stroke:#181818;stroke-width:1.0;stroke-dasharray:2.0,2.0;" x1="24" x2="167" y1="287.2266" y2="287.2266"></line><text fill="#000000" font-family="sans-serif" font-size="13" lengthAdjust="spacing" textLength="64" x="31" y="282.1606">Close Bug</text><polygon fill="#181818" points="268,312.3594,278,316.3594,268,320.3594,272,316.3594" style="stroke:#181818;stroke-width:1.0;"></polygon><line style="stroke:#181818;stroke-width:1.0;stroke-dasharray:2.0,2.0;" x1="173" x2="274" y1="316.3594" y2="316.3594"></line><text fill="#000000" font-family="sans-serif" font-size="13" lengthAdjust="spacing" textLength="64" x="180" y="311.2935">Close Bug</text><polygon fill="#181818" points="35,341.4922,25,345.4922,35,349.4922,31,345.4922" style="stroke:#181818;stroke-width:1.0;"></polygon><line style="stroke:#181818;stroke-width:1.0;stroke-dasharray:2.0,2.0;" x1="29" x2="172" y1="345.4922" y2="345.4922"></line><text fill="#000000" font-family="sans-serif" font-size="13" lengthAdjust="spacing" textLength="113" x="41" y="340.4263">Notify Bug Closed</text><!--SRC=[ROun3eCm34Ltdy9Yvm8C392PfV4134chYaf1IHXw-ngIeI6C__tl9_CIdSU6WlKDSa02JcJONwWzBsik1Ws68yySR2fLJgbL08HjsyiEEnozvMXHPY3vn4hmGym59O6JY-_dzw3vpFoRQ3DtfXfVL6bGgCQF2xMfejUVZjxy0000]--></g></svg>