<!--?xml version="1.0" encoding="us-ascii" standalone="no"?--><svg xmlns="http://www.w3.org/2000/svg" xmlns:xlink="http://www.w3.org/1999/xlink" contentstyletype="text/css" height="672px" preserveAspectRatio="none" style="width:711px;height:672px;background:#FFFFFF;" version="1.1" viewBox="0 0 711 672" width="711px" zoomAndPan="magnify"><defs></defs><g><!--cluster Bug Tracking System--><g id="cluster_Bug Tracking System"><rect fill="none" height="281.24" rx="2.5" ry="2.5" style="stroke:#181818;stroke-width:1.0;" width="542" x="7" y="128.8"></rect><text fill="#000000" font-family="sans-serif" font-size="14" font-weight="bold" lengthAdjust="spacing" textLength="166" x="195" y="143.7951">Bug Tracking System</text></g><g id="elem_User Authentication"><ellipse cx="265.0044" cy="183.6949" fill="#F1F1F1" rx="87.4744" ry="19.8949" style="stroke:#181818;stroke-width:0.5;"></ellipse><text fill="#000000" font-family="sans-serif" font-size="14" lengthAdjust="spacing" textLength="136" x="197.0044" y="186.5416">User Authentication</text></g><g id="elem_Bug Creation"><ellipse cx="106.004" cy="280.7828" fill="#F1F1F1" rx="68.964" ry="16.1928" style="stroke:#181818;stroke-width:0.5;"></ellipse><text fill="#000000" font-family="sans-serif" font-size="14" lengthAdjust="spacing" textLength="90" x="58.004" y="284.5304">Bug Creation</text></g><g id="elem_Bug Update"><ellipse cx="276.003" cy="280.7826" fill="#F1F1F1" rx="66.113" ry="15.6226" style="stroke:#181818;stroke-width:0.5;"></ellipse><text fill="#000000" font-family="sans-serif" font-size="14" lengthAdjust="spacing" textLength="82" x="232.003" y="284.5302">Bug Update</text></g><g id="elem_Bug Closure"><ellipse cx="443.9978" cy="280.7836" fill="#F1F1F1" rx="67.1678" ry="15.8336" style="stroke:#181818;stroke-width:0.5;"></ellipse><text fill="#000000" font-family="sans-serif" font-size="14" lengthAdjust="spacing" textLength="85" x="398.4978" y="284.5311">Bug Closure</text></g><g id="elem_Bug Assignment"><ellipse cx="100.9951" cy="376.011" fill="#F1F1F1" rx="78.1551" ry="18.031" style="stroke:#181818;stroke-width:0.5;"></ellipse><text fill="#000000" font-family="sans-serif" font-size="14" lengthAdjust="spacing" textLength="114" x="41.6059" y="379.5966">Bug Assignment</text></g><g id="elem_Bug Priority"><ellipse cx="278.9953" cy="376.0071" fill="#F1F1F1" rx="64.7353" ry="15.3471" style="stroke:#181818;stroke-width:0.5;"></ellipse><text fill="#000000" font-family="sans-serif" font-size="14" lengthAdjust="spacing" textLength="78" x="236.9953" y="379.7546">Bug Priority</text></g><g id="elem_Bug Attachment"><ellipse cx="456.0036" cy="376.0107" fill="#F1F1F1" rx="77.3536" ry="17.8707" style="stroke:#181818;stroke-width:0.5;"></ellipse><text fill="#000000" font-family="sans-serif" font-size="14" lengthAdjust="spacing" textLength="112" x="397.2833" y="379.6854">Bug Attachment</text></g><g id="elem_Bug Comment"><ellipse cx="459.9968" cy="183.6874" fill="#F1F1F1" rx="72.6868" ry="16.9374" style="stroke:#181818;stroke-width:0.5;"></ellipse><text fill="#000000" font-family="sans-serif" font-size="14" lengthAdjust="spacing" textLength="100" x="406.9968" y="187.4349">Bug Comment</text></g><!--entity User--><g id="elem_User"><ellipse cx="265" cy="14" fill="#F1F1F1" rx="8" ry="8" style="stroke:#181818;stroke-width:0.5;"></ellipse><path d="M265,22 L265,49 M252,30 L278,30 M265,49 L252,64 M265,49 L278,64 " fill="none" style="stroke:#181818;stroke-width:0.5;"></path><text fill="#000000" font-family="sans-serif" font-size="14" lengthAdjust="spacing" textLength="32" x="249" y="78.4951">User</text></g><!--entity Developer--><g id="elem_Developer"><ellipse cx="306" cy="465.54" fill="#F1F1F1" rx="8" ry="8" style="stroke:#181818;stroke-width:0.5;"></ellipse><path d="M306,473.54 L306,500.54 M293,481.54 L319,481.54 M306,500.54 L293,515.54 M306,500.54 L319,515.54 " fill="none" style="stroke:#181818;stroke-width:0.5;"></path><text fill="#000000" font-family="sans-serif" font-size="14" lengthAdjust="spacing" textLength="71" x="270.5" y="530.0351">Developer</text></g><!--entity BugDB--><g id="elem_BugDB"><path d="M378,620.33 C378,610.33 437,610.33 437,610.33 C437,610.33 496,610.33 496,620.33 L496,645.6269 C496,655.6269 437,655.6269 437,655.6269 C437,655.6269 378,655.6269 378,645.6269 L378,620.33 " fill="#F1F1F1" style="stroke:#181818;stroke-width:0.5;"></path><path d="M378,620.33 C378,630.33 437,630.33 437,630.33 C437,630.33 496,630.33 496,620.33 " fill="none" style="stroke:#181818;stroke-width:0.5;"></path><text fill="#000000" font-family="sans-serif" font-size="14" lengthAdjust="spacing" textLength="98" x="388" y="647.3251">Bug Database</text></g><!--link User to User Authentication--><g id="link_User_User Authentication"><path d="M265,82.01 C265,105.99 265,136.48 265,157.6 " fill="none" id="User-to-User Authentication" style="stroke:#181818;stroke-width:1.0;"></path><polygon fill="#181818" points="265,162.56,269,153.56,265,157.56,261,153.56,265,162.56" style="stroke:#181818;stroke-width:1.0;"></polygon></g><!--link User Authentication to Bug Creation--><g id="link_User Authentication_Bug Creation"><path d="M234.72,202.8 C206.22,219.85 163.8,245.21 135.55,262.11 " fill="none" id="User Authentication-to-Bug Creation" style="stroke:#181818;stroke-width:1.0;"></path><polygon fill="#181818" points="131.44,265.16,141.2154,263.9595,135.7275,262.5875,137.0995,257.0996,131.44,265.16" style="stroke:#181818;stroke-width:1.0;"></polygon></g><!--link User Authentication to Bug Update--><g id="link_User Authentication_Bug Update"><path d="M267.23,203.94 C269.08,219.98 271.72,242.79 273.62,259.2 " fill="none" id="User Authentication-to-Bug Update" style="stroke:#181818;stroke-width:1.0;"></path><polygon fill="#181818" points="274.28,263.93,277.2261,254.5321,273.709,258.9627,269.2784,255.4456,274.28,263.93" style="stroke:#181818;stroke-width:1.0;"></polygon></g><!--link User Authentication to Bug Closure--><g id="link_User Authentication_Bug Closure"><path d="M298.25,202.36 C330.97,219.74 380.57,246.09 412.63,263.12 " fill="none" id="User Authentication-to-Bug Closure" style="stroke:#181818;stroke-width:1.0;"></path><polygon fill="#181818" points="416.62,265.77,410.5455,258.0175,412.2035,263.426,406.7951,265.0839,416.62,265.77" style="stroke:#181818;stroke-width:1.0;"></polygon></g><!--link Bug Creation to Bug Assignment--><g id="link_Bug Creation_Bug Assignment"><path d="M105.17,297.18 C104.37,312.14 103.14,335.04 102.23,352.13 " fill="none" id="Bug Creation-to-Bug Assignment" style="stroke:#181818;stroke-width:1.0;"></path><polygon fill="#181818" points="101.93,356.69,106.4133,347.9208,102.2018,351.6974,98.4252,347.4859,101.93,356.69" style="stroke:#181818;stroke-width:1.0;"></polygon></g><!--link Bug Creation to Bug Priority--><g id="link_Bug Creation_Bug Priority"><path d="M132.65,296.14 C164.05,313.06 216.09,341.1 248.91,358.79 " fill="none" id="Bug Creation-to-Bug Priority" style="stroke:#181818;stroke-width:1.0;"></path><polygon fill="#181818" points="253,361.54,246.9752,353.7489,248.5986,359.1678,243.1796,360.7912,253,361.54" style="stroke:#181818;stroke-width:1.0;"></polygon></g><!--link Bug Creation to Bug Attachment--><g id="link_Bug Creation_Bug Attachment"><path d="M150.33,293.59 C214.11,310.58 331.7,341.9 400.96,360.35 " fill="none" id="Bug Creation-to-Bug Attachment" style="stroke:#181818;stroke-width:1.0;"></path><polygon fill="#181818" points="405.69,361.87,398.0394,355.6678,400.8619,360.5701,395.9596,363.3927,405.69,361.87" style="stroke:#181818;stroke-width:1.0;"></polygon></g><!--link Bug Update to Bug Assignment--><g id="link_Bug Update_Bug Assignment"><path d="M250.18,295.54 C220.04,311.59 170.02,338.24 136.31,356.2 " fill="none" id="Bug Update-to-Bug Assignment" style="stroke:#181818;stroke-width:1.0;"></path><polygon fill="#181818" points="132.04,359,141.8632,358.2892,136.4506,356.6448,138.0949,351.2322,132.04,359" style="stroke:#181818;stroke-width:1.0;"></polygon></g><!--link Bug Update to Bug Priority--><g id="link_Bug Update_Bug Priority"><path d="M276.48,296.76 C276.99,312.48 277.79,337.3 278.35,354.76 " fill="none" id="Bug Update-to-Bug Priority" style="stroke:#181818;stroke-width:1.0;"></path><polygon fill="#181818" points="278.53,359.37,282.2453,350.2488,278.3729,354.3725,274.2493,350.5001,278.53,359.37" style="stroke:#181818;stroke-width:1.0;"></polygon></g><!--link Bug Update to Bug Attachment--><g id="link_Bug Update_Bug Attachment"><path d="M308.93,294.57 C329.69,303.01 356.86,314.73 380,326.97 C396.1,335.49 413.31,346.22 427.27,355.38 " fill="none" id="Bug Update-to-Bug Attachment" style="stroke:#181818;stroke-width:1.0;"></path><polygon fill="#181818" points="431.26,358.68,425.9376,350.3931,427.0822,355.933,421.5424,357.0776,431.26,358.68" style="stroke:#181818;stroke-width:1.0;"></polygon></g><!--link Bug Closure to Bug Assignment--><g id="link_Bug Closure_Bug Assignment"><path d="M401.25,293.4 C339.16,310.28 223.99,341.58 155.76,360.12 " fill="none" id="Bug Closure-to-Bug Assignment" style="stroke:#181818;stroke-width:1.0;"></path><polygon fill="#181818" points="151.11,361.66,160.8457,363.1486,155.9335,360.3432,158.7388,355.431,151.11,361.66" style="stroke:#181818;stroke-width:1.0;"></polygon></g><!--link Bug Closure to Bug Priority--><g id="link_Bug Closure_Bug Priority"><path d="M418.94,295.94 C389.16,312.77 339.56,340.79 308.11,358.56 " fill="none" id="Bug Closure-to-Bug Priority" style="stroke:#181818;stroke-width:1.0;"></path><polygon fill="#181818" points="304.22,361.32,314.0242,360.3833,308.5752,358.8639,310.0945,353.4149,304.22,361.32" style="stroke:#181818;stroke-width:1.0;"></polygon></g><!--link Bug Closure to Bug Attachment--><g id="link_Bug Closure_Bug Attachment"><path d="M445.93,296.76 C447.86,311.74 450.85,334.98 453.07,352.24 " fill="none" id="Bug Closure-to-Bug Attachment" style="stroke:#181818;stroke-width:1.0;"></path><polygon fill="#181818" points="453.79,356.85,456.6261,347.4183,453.161,351.8897,448.6896,348.4247,453.79,356.85" style="stroke:#181818;stroke-width:1.0;"></polygon></g><!--link Bug Assignment to Developer--><g id="link_Bug Assignment_Developer"><path d="M129.07,393.05 C164.37,413.23 225.23,448.01 265.54,471.06 " fill="none" id="Bug Assignment-to-Developer" style="stroke:#181818;stroke-width:1.0;"></path><polygon fill="#181818" points="269.36,473.81,263.5163,465.8821,265.0144,471.337,259.5595,472.8351,269.36,473.81" style="stroke:#181818;stroke-width:1.0;"></polygon></g><!--link Bug Priority to Developer--><g id="link_Bug Priority_Developer"><path d="M282.31,391.37 C285.71,406.12 291.17,429.81 295.99,450.73 " fill="none" id="Bug Priority-to-Developer" style="stroke:#181818;stroke-width:1.0;"></path><polygon fill="#181818" points="297.33,455.54,299.2225,445.8747,296.2151,450.6659,291.4239,447.6585,297.33,455.54" style="stroke:#181818;stroke-width:1.0;"></polygon></g><!--link Bug Attachment to Developer--><g id="link_Bug Attachment_Developer"><path d="M434.83,393.55 C411.91,411.45 374.81,440.43 346.3,462.7 " fill="none" id="Bug Attachment-to-Developer" style="stroke:#181818;stroke-width:1.0;"></path><polygon fill="#181818" points="342.8,466.22,352.3528,463.8232,346.7375,463.1385,347.4223,457.5232,342.8,466.22" style="stroke:#181818;stroke-width:1.0;"></polygon></g><!--link Developer to BugDB--><g id="link_Developer_BugDB"><path d="M319.54,533.42 C326.59,549.19 336.39,566.97 349,580.33 C358.77,590.69 371.07,599.63 383.35,607.02 " fill="none" id="Developer-to-BugDB" style="stroke:#181818;stroke-width:1.0;"></path><polygon fill="#181818" points="387.24,609.89,381.4979,601.8882,382.9263,607.3618,377.4527,608.7901,387.24,609.89" style="stroke:#181818;stroke-width:1.0;"></polygon><text fill="#000000" font-family="sans-serif" font-size="13" lengthAdjust="spacing" textLength="60" x="350" y="576.3969">Bug Data</text></g><!--link Bug Attachment to BugDB--><g id="link_Bug Attachment_BugDB"><path d="M454.72,394.13 C451.5,437.35 443.02,551.17 439.08,604.13 " fill="none" id="Bug Attachment-to-BugDB" style="stroke:#181818;stroke-width:1.0;"></path><polygon fill="#181818" points="438.64,608.98,443.2976,600.302,439.0115,603.9938,435.3197,599.7077,438.64,608.98" style="stroke:#181818;stroke-width:1.0;"></polygon><text fill="#000000" font-family="sans-serif" font-size="13" lengthAdjust="spacing" textLength="111" x="450" y="499.7469">Attachment Data</text></g><!--link Bug Comment to BugDB--><g id="link_Bug Comment_BugDB"><path d="M510.42,196.21 C551.59,208.95 603,234.02 603,279.78 C603,279.78 603,279.78 603,496.18 C603,550.86 548.38,587.49 501.81,608.79 " fill="none" id="Bug Comment-to-BugDB" style="stroke:#181818;stroke-width:1.0;"></path><polygon fill="#181818" points="497.46,611.18,507.3088,611.16,502.0249,609.14,504.0449,603.8561,497.46,611.18" style="stroke:#181818;stroke-width:1.0;"></polygon><text fill="#000000" font-family="sans-serif" font-size="13" lengthAdjust="spacing" textLength="99" x="604" y="380.5769">Comment Data</text></g><!--SRC=[ZP9D3e8m48Ntd6B2IXTUm8M9oW5Cr0ECTOADq9fsC376kmkbWDegTZK_Nz-RIGO5QmFftf990IqqGO9jCQCh5VhYEtsM797nW9OWNLKvP3vpK5t8LeaXmQZomXCxW-8iLGxRcsKgKxWdKB_62cQp1KnSjApuH8gbG9PQJHqIxRH_6k6reV_X_QMUc_xJBRIjJCU-EGtGqbgPgx8M-CrjZDH6ycr4ZHd5wKFDZppY6L0Hnr0fvjVjFRPaWCLs3BLYbYy6ZXokh4TwyM_0Yt04wJFNSmSAS-WkzxjAHmxrZmzhNOQqBxReuma0]--></g></svg>