<!--?xml version="1.0" encoding="us-ascii" standalone="no"?--><svg xmlns="http://www.w3.org/2000/svg" xmlns:xlink="http://www.w3.org/1999/xlink" contentstyletype="text/css" height="317px" preserveAspectRatio="none" style="width:974px;height:317px;background:#FFFFFF;" version="1.1" viewBox="0 0 974 317" width="974px" zoomAndPan="magnify"><defs></defs><g><!--class Bug--><g id="elem_Bug"><rect codeline="1" fill="#F1F1F1" height="129.4844" id="Bug" rx="2.5" ry="2.5" style="stroke:#181818;stroke-width:0.5;" width="155" x="371.97" y="7"></rect><ellipse cx="431.22" cy="23" fill="#ADD1B2" rx="11" ry="11" style="stroke:#181818;stroke-width:1.0;"></ellipse><path d="M435.3294,29 L427.6106,29 L427.6106,16.6094 L435.3294,16.6094 L435.3294,18.7656 L430.0638,18.7656 L430.0638,21.4375 L434.8294,21.4375 L434.8294,23.5938 L430.0638,23.5938 L430.0638,26.8438 L435.3294,26.8438 L435.3294,29 Z " fill="#000000"></path><text fill="#000000" font-family="sans-serif" font-size="14" lengthAdjust="spacing" textLength="28" x="451.72" y="27.8467">Bug</text><line style="stroke:#181818;stroke-width:0.5;" x1="372.97" x2="525.97" y1="39" y2="39"></line><ellipse cx="382.97" cy="52.6484" fill="none" rx="3" ry="3" style="stroke:#038048;stroke-width:1.0;"></ellipse><text fill="#000000" font-family="sans-serif" font-size="14" lengthAdjust="spacing" textLength="69" x="391.97" y="55.9951">bugId : int</text><line style="stroke:#181818;stroke-width:1.0;" x1="372.97" x2="525.97" y1="63.2969" y2="63.2969"></line><ellipse cx="382.97" cy="76.9453" fill="none" rx="3" ry="3" style="stroke:#038048;stroke-width:1.0;"></ellipse><text fill="#000000" font-family="sans-serif" font-size="14" lengthAdjust="spacing" textLength="77" x="391.97" y="80.292">title : string</text><ellipse cx="382.97" cy="93.2422" fill="none" rx="3" ry="3" style="stroke:#038048;stroke-width:1.0;"></ellipse><text fill="#000000" font-family="sans-serif" font-size="14" lengthAdjust="spacing" textLength="129" x="391.97" y="96.5889">description : string</text><ellipse cx="382.97" cy="109.5391" fill="none" rx="3" ry="3" style="stroke:#038048;stroke-width:1.0;"></ellipse><text fill="#000000" font-family="sans-serif" font-size="14" lengthAdjust="spacing" textLength="95" x="391.97" y="112.8857">status : string</text><ellipse cx="382.97" cy="125.8359" fill="none" rx="3" ry="3" style="stroke:#038048;stroke-width:1.0;"></ellipse><text fill="#000000" font-family="sans-serif" font-size="14" lengthAdjust="spacing" textLength="98" x="391.97" y="129.1826">priority : string</text></g><!--class User--><g id="elem_User"><rect codeline="10" fill="#F1F1F1" height="96.8906" id="User" rx="2.5" ry="2.5" style="stroke:#181818;stroke-width:0.5;" width="117" x="224.97" y="213.48"></rect><ellipse cx="263.82" cy="229.48" fill="#ADD1B2" rx="11" ry="11" style="stroke:#181818;stroke-width:1.0;"></ellipse><path d="M267.9294,235.48 L260.2106,235.48 L260.2106,223.0894 L267.9294,223.0894 L267.9294,225.2456 L262.6638,225.2456 L262.6638,227.9175 L267.4294,227.9175 L267.4294,230.0738 L262.6638,230.0738 L262.6638,233.3238 L267.9294,233.3238 L267.9294,235.48 Z " fill="#000000"></path><text fill="#000000" font-family="sans-serif" font-size="14" lengthAdjust="spacing" textLength="32" x="283.12" y="234.3267">User</text><line style="stroke:#181818;stroke-width:0.5;" x1="225.97" x2="340.97" y1="245.48" y2="245.48"></line><ellipse cx="235.97" cy="259.1284" fill="none" rx="3" ry="3" style="stroke:#038048;stroke-width:1.0;"></ellipse><text fill="#000000" font-family="sans-serif" font-size="14" lengthAdjust="spacing" textLength="73" x="244.97" y="262.4751">userId : int</text><line style="stroke:#181818;stroke-width:1.0;" x1="225.97" x2="340.97" y1="269.7769" y2="269.7769"></line><ellipse cx="235.97" cy="283.4253" fill="none" rx="3" ry="3" style="stroke:#038048;stroke-width:1.0;"></ellipse><text fill="#000000" font-family="sans-serif" font-size="14" lengthAdjust="spacing" textLength="91" x="244.97" y="286.772">name : string</text><ellipse cx="235.97" cy="299.7222" fill="none" rx="3" ry="3" style="stroke:#038048;stroke-width:1.0;"></ellipse><text fill="#000000" font-family="sans-serif" font-size="14" lengthAdjust="spacing" textLength="78" x="244.97" y="303.0689">role : string</text></g><!--class Comment--><g id="elem_Comment"><rect codeline="17" fill="#F1F1F1" height="80.5938" id="Comment" rx="2.5" ry="2.5" style="stroke:#181818;stroke-width:0.5;" width="134" x="499.47" y="221.63"></rect><ellipse cx="529.77" cy="237.63" fill="#ADD1B2" rx="11" ry="11" style="stroke:#181818;stroke-width:1.0;"></ellipse><path d="M533.8794,243.63 L526.1606,243.63 L526.1606,231.2394 L533.8794,231.2394 L533.8794,233.3956 L528.6138,233.3956 L528.6138,236.0675 L533.3794,236.0675 L533.3794,238.2238 L528.6138,238.2238 L528.6138,241.4738 L533.8794,241.4738 L533.8794,243.63 Z " fill="#000000"></path><text fill="#000000" font-family="sans-serif" font-size="14" lengthAdjust="spacing" textLength="68" x="547.17" y="242.4767">Comment</text><line style="stroke:#181818;stroke-width:0.5;" x1="500.47" x2="632.47" y1="253.63" y2="253.63"></line><ellipse cx="510.47" cy="267.2784" fill="none" rx="3" ry="3" style="stroke:#038048;stroke-width:1.0;"></ellipse><text fill="#000000" font-family="sans-serif" font-size="14" lengthAdjust="spacing" textLength="108" x="519.47" y="270.6251">commentId : int</text><line style="stroke:#181818;stroke-width:1.0;" x1="500.47" x2="632.47" y1="277.9269" y2="277.9269"></line><ellipse cx="510.47" cy="291.5753" fill="none" rx="3" ry="3" style="stroke:#038048;stroke-width:1.0;"></ellipse><text fill="#000000" font-family="sans-serif" font-size="14" lengthAdjust="spacing" textLength="106" x="519.47" y="294.922">content : string</text></g><!--class Attachment--><g id="elem_Attachment"><rect codeline="23" fill="#F1F1F1" height="80.5938" id="Attachment" rx="2.5" ry="2.5" style="stroke:#181818;stroke-width:0.5;" width="147" x="668.97" y="221.63"></rect><ellipse cx="699.72" cy="237.63" fill="#ADD1B2" rx="11" ry="11" style="stroke:#181818;stroke-width:1.0;"></ellipse><path d="M703.8294,243.63 L696.1106,243.63 L696.1106,231.2394 L703.8294,231.2394 L703.8294,233.3956 L698.5638,233.3956 L698.5638,236.0675 L703.3294,236.0675 L703.3294,238.2238 L698.5638,238.2238 L698.5638,241.4738 L703.8294,241.4738 L703.8294,243.63 Z " fill="#000000"></path><text fill="#000000" font-family="sans-serif" font-size="14" lengthAdjust="spacing" textLength="80" x="717.22" y="242.4767">Attachment</text><line style="stroke:#181818;stroke-width:0.5;" x1="669.97" x2="814.97" y1="253.63" y2="253.63"></line><ellipse cx="679.97" cy="267.2784" fill="none" rx="3" ry="3" style="stroke:#038048;stroke-width:1.0;"></ellipse><text fill="#000000" font-family="sans-serif" font-size="14" lengthAdjust="spacing" textLength="121" x="688.97" y="270.6251">attachmentId : int</text><line style="stroke:#181818;stroke-width:1.0;" x1="669.97" x2="814.97" y1="277.9269" y2="277.9269"></line><ellipse cx="679.97" cy="291.5753" fill="none" rx="3" ry="3" style="stroke:#038048;stroke-width:1.0;"></ellipse><text fill="#000000" font-family="sans-serif" font-size="14" lengthAdjust="spacing" textLength="110" x="688.97" y="294.922">filename : string</text></g><!--class Project--><g id="elem_Project"><rect codeline="29" fill="#F1F1F1" height="80.5938" id="Project" rx="2.5" ry="2.5" style="stroke:#181818;stroke-width:0.5;" width="117" x="850.97" y="221.63"></rect><ellipse cx="882.62" cy="237.63" fill="#ADD1B2" rx="11" ry="11" style="stroke:#181818;stroke-width:1.0;"></ellipse><path d="M886.7294,243.63 L879.0106,243.63 L879.0106,231.2394 L886.7294,231.2394 L886.7294,233.3956 L881.4638,233.3956 L881.4638,236.0675 L886.2294,236.0675 L886.2294,238.2238 L881.4638,238.2238 L881.4638,241.4738 L886.7294,241.4738 L886.7294,243.63 Z " fill="#000000"></path><text fill="#000000" font-family="sans-serif" font-size="14" lengthAdjust="spacing" textLength="48" x="900.32" y="242.4767">Project</text><line style="stroke:#181818;stroke-width:0.5;" x1="851.97" x2="966.97" y1="253.63" y2="253.63"></line><ellipse cx="861.97" cy="267.2784" fill="none" rx="3" ry="3" style="stroke:#038048;stroke-width:1.0;"></ellipse><text fill="#000000" font-family="sans-serif" font-size="14" lengthAdjust="spacing" textLength="90" x="870.97" y="270.6251">projectId : int</text><line style="stroke:#181818;stroke-width:1.0;" x1="851.97" x2="966.97" y1="277.9269" y2="277.9269"></line><ellipse cx="861.97" cy="291.5753" fill="none" rx="3" ry="3" style="stroke:#038048;stroke-width:1.0;"></ellipse><text fill="#000000" font-family="sans-serif" font-size="14" lengthAdjust="spacing" textLength="91" x="870.97" y="294.922">name : string</text></g><!--link Bug to User--><g id="link_Bug_User"><path codeline="35" d="M371.77,79.93 C268.16,91.32 93.26,117.41 54.47,166.48 C6,227.8 141.78,249.65 224.63,257.17 " fill="none" id="Bug-User" style="stroke:#181818;stroke-width:1.0;"></path><text fill="#000000" font-family="sans-serif" font-size="13" lengthAdjust="spacing" textLength="68" x="55.47" y="179.5469">created by</text></g><!--link Bug to User--><g id="link_Bug_User"><path codeline="36" d="M371.54,74.64 C304.48,80.91 211.35,101.71 164.47,166.48 C141.74,197.89 184.35,224.37 224.76,241.22 " fill="none" id="Bug-User-1" style="stroke:#181818;stroke-width:1.0;"></path><text fill="#000000" font-family="sans-serif" font-size="13" lengthAdjust="spacing" textLength="74" x="165.47" y="179.5469">assigned to</text></g><!--link Bug to User--><g id="link_Bug_User"><path codeline="37" d="M371.73,95.72 C337.41,110.17 300.39,132.65 280.47,166.48 C272.32,180.33 270.84,197.42 272.13,213.24 " fill="none" id="Bug-User-2" style="stroke:#181818;stroke-width:1.0;"></path><text fill="#000000" font-family="sans-serif" font-size="13" lengthAdjust="spacing" textLength="73" x="281.47" y="179.5469">resolved by</text></g><!--link Bug to User--><g id="link_Bug_User"><path codeline="38" d="M399.07,136.84 C386.42,152.34 372.68,168.7 359.47,183.48 C350.69,193.31 341.03,203.56 331.62,213.26 " fill="none" id="Bug-User-3" style="stroke:#181818;stroke-width:1.0;"></path><text fill="#000000" font-family="sans-serif" font-size="13" lengthAdjust="spacing" textLength="60" x="373.47" y="179.5469">closed by</text></g><!--link Bug to User--><g id="link_Bug_User"><path codeline="39" d="M456.48,136.75 C455.42,153.1 451.59,169.88 442.47,183.48 C419.66,217.53 377.4,237.13 342.18,248.09 " fill="none" id="Bug-User-4" style="stroke:#181818;stroke-width:1.0;"></path><text fill="#000000" font-family="sans-serif" font-size="13" lengthAdjust="spacing" textLength="80" x="451.47" y="179.5469">reopened by</text></g><!--link Bug to Comment--><g id="link_Bug_Comment"><path codeline="41" d="M527.38,109.18 C549.58,123.68 571.08,142.68 583.47,166.48 C592.25,183.32 589.84,203.9 584.46,221.53 " fill="none" id="Bug-Comment" style="stroke:#181818;stroke-width:1.0;"></path><text fill="#000000" font-family="sans-serif" font-size="13" lengthAdjust="spacing" textLength="23" x="590.47" y="179.5469">has</text></g><!--link Bug to Attachment--><g id="link_Bug_Attachment"><path codeline="42" d="M527.33,111.31 C557.69,127.28 592.36,146.68 622.47,166.48 C647.73,183.09 674.29,203.63 695.98,221.31 " fill="none" id="Bug-Attachment" style="stroke:#181818;stroke-width:1.0;"></path><text fill="#000000" font-family="sans-serif" font-size="13" lengthAdjust="spacing" textLength="23" x="648.47" y="179.5469">has</text></g><!--link Bug to Project--><g id="link_Bug_Project"><path codeline="44" d="M527.18,95.99 C606.15,120.82 731.09,163.43 833.47,213.48 C839.2,216.28 845.05,219.4 850.82,222.67 " fill="none" id="Bug-Project" style="stroke:#181818;stroke-width:1.0;"></path><text fill="#000000" font-family="sans-serif" font-size="13" lengthAdjust="spacing" textLength="67" x="762.47" y="179.5469">belongs to</text></g><!--SRC=[XP5DReGm38NtdCAQRSK5s7MwwgwR7Y04DvCgn2Ws8usgtdq2IIX_KbSylnU-F0nwiVA0otKq5r0CyGa_5S0BjADvxw01woNETJsRyR33QB84wyriTSWws44i-Mt0ecJahJS4Is6wS75_gmfpXq_6C9UOH6unHdciuLM_Qn5etMi5VQE-ZthcPftHEar7kYOlqx4ptAk8qhU5-3Tcg5gC8_VBEjmsNu4_0dsZJjIiCt98qtzRYApfvzLrMby3Eg0IxA1zx0B5R8sFYT0k2SZaxcVlQ4TyvWUa0NrAIbJMtC1DSJ5Ncqf-2Sh7Dj2Y8syurde2]--></g></svg>