<!--?xml version="1.0" encoding="us-ascii" standalone="no"?--><svg xmlns="http://www.w3.org/2000/svg" xmlns:xlink="http://www.w3.org/1999/xlink" contentstyletype="text/css" height="556px" preserveAspectRatio="none" style="width:780px;height:556px;background:#FFFFFF;" version="1.1" viewBox="0 0 780 556" width="780px" zoomAndPan="magnify"><defs></defs><g><!--class User--><g id="elem_User"><rect codeline="1" fill="#F1F1F1" height="113.1875" id="User" rx="2.5" ry="2.5" style="stroke:#181818;stroke-width:0.5;" width="108" x="135" y="7"></rect><ellipse cx="169.8" cy="23" fill="#ADD1B2" rx="11" ry="11" style="stroke:#181818;stroke-width:1.0;"></ellipse><path d="M173.9094,29 L166.1906,29 L166.1906,16.6094 L173.9094,16.6094 L173.9094,18.7656 L168.6438,18.7656 L168.6438,21.4375 L173.4094,21.4375 L173.4094,23.5938 L168.6438,23.5938 L168.6438,26.8438 L173.9094,26.8438 L173.9094,29 Z " fill="#000000"></path><text fill="#000000" font-family="sans-serif" font-size="14" lengthAdjust="spacing" textLength="32" x="188.2" y="27.8467">User</text><line style="stroke:#181818;stroke-width:0.5;" x1="136" x2="242" y1="39" y2="39"></line><ellipse cx="146" cy="52.6484" fill="none" rx="3" ry="3" style="stroke:#038048;stroke-width:1.0;"></ellipse><text fill="#000000" font-family="sans-serif" font-size="14" lengthAdjust="spacing" textLength="82" x="155" y="55.9951">user_id [PK]</text><line style="stroke:#181818;stroke-width:1.0;" x1="136" x2="242" y1="63.2969" y2="63.2969"></line><text fill="#000000" font-family="sans-serif" font-size="14" lengthAdjust="spacing" textLength="70" x="141" y="80.292">username</text><text fill="#000000" font-family="sans-serif" font-size="14" lengthAdjust="spacing" textLength="67" x="141" y="96.5889">password</text><text fill="#000000" font-family="sans-serif" font-size="14" lengthAdjust="spacing" textLength="36" x="141" y="112.8857">email</text></g><!--class Developer--><g id="elem_Developer"><rect codeline="9" fill="#F1F1F1" height="96.8906" id="Developer" rx="2.5" ry="2.5" style="stroke:#181818;stroke-width:0.5;" width="146" x="278" y="15.15"></rect><ellipse cx="312.35" cy="31.15" fill="#ADD1B2" rx="11" ry="11" style="stroke:#181818;stroke-width:1.0;"></ellipse><path d="M316.4594,37.15 L308.7406,37.15 L308.7406,24.7594 L316.4594,24.7594 L316.4594,26.9156 L311.1938,26.9156 L311.1938,29.5875 L315.9594,29.5875 L315.9594,31.7438 L311.1938,31.7438 L311.1938,34.9938 L316.4594,34.9938 L316.4594,37.15 Z " fill="#000000"></path><text fill="#000000" font-family="sans-serif" font-size="14" lengthAdjust="spacing" textLength="71" x="330.65" y="35.9967">Developer</text><line style="stroke:#181818;stroke-width:0.5;" x1="279" x2="423" y1="47.15" y2="47.15"></line><ellipse cx="289" cy="60.7984" fill="none" rx="3" ry="3" style="stroke:#038048;stroke-width:1.0;"></ellipse><text fill="#000000" font-family="sans-serif" font-size="14" lengthAdjust="spacing" textLength="120" x="298" y="64.1451">developer_id [PK]</text><line style="stroke:#181818;stroke-width:1.0;" x1="279" x2="423" y1="71.4469" y2="71.4469"></line><text fill="#000000" font-family="sans-serif" font-size="14" lengthAdjust="spacing" textLength="39" x="284" y="88.442">name</text><text fill="#000000" font-family="sans-serif" font-size="14" lengthAdjust="spacing" textLength="36" x="284" y="104.7389">email</text></g><!--class Bug--><g id="elem_Bug"><rect codeline="16" fill="#F1F1F1" height="162.0781" id="Bug" rx="2.5" ry="2.5" style="stroke:#181818;stroke-width:0.5;" width="108" x="216" y="197.18"></rect><ellipse cx="252.6" cy="213.18" fill="#ADD1B2" rx="11" ry="11" style="stroke:#181818;stroke-width:1.0;"></ellipse><path d="M256.7094,219.18 L248.9906,219.18 L248.9906,206.7894 L256.7094,206.7894 L256.7094,208.9456 L251.4438,208.9456 L251.4438,211.6175 L256.2094,211.6175 L256.2094,213.7738 L251.4438,213.7738 L251.4438,217.0238 L256.7094,217.0238 L256.7094,219.18 Z " fill="#000000"></path><text fill="#000000" font-family="sans-serif" font-size="14" lengthAdjust="spacing" textLength="28" x="271.4" y="218.0267">Bug</text><line style="stroke:#181818;stroke-width:0.5;" x1="217" x2="323" y1="229.18" y2="229.18"></line><ellipse cx="227" cy="242.8284" fill="none" rx="3" ry="3" style="stroke:#038048;stroke-width:1.0;"></ellipse><text fill="#000000" font-family="sans-serif" font-size="14" lengthAdjust="spacing" textLength="78" x="236" y="246.1751">bug_id [PK]</text><line style="stroke:#181818;stroke-width:1.0;" x1="217" x2="323" y1="253.4769" y2="253.4769"></line><text fill="#000000" font-family="sans-serif" font-size="14" lengthAdjust="spacing" textLength="25" x="222" y="270.472">title</text><text fill="#000000" font-family="sans-serif" font-size="14" lengthAdjust="spacing" textLength="77" x="222" y="286.7689">description</text><text fill="#000000" font-family="sans-serif" font-size="14" lengthAdjust="spacing" textLength="43" x="222" y="303.0657">status</text><text fill="#000000" font-family="sans-serif" font-size="14" lengthAdjust="spacing" textLength="46" x="222" y="319.3626">priority</text><text fill="#000000" font-family="sans-serif" font-size="14" lengthAdjust="spacing" textLength="91" x="222" y="335.6595">created_date</text><text fill="#000000" font-family="sans-serif" font-size="14" lengthAdjust="spacing" textLength="96" x="222" y="351.9564">updated_date</text></g><!--class Attachment--><g id="elem_Attachment"><rect codeline="27" fill="#F1F1F1" height="113.1875" id="Attachment" rx="2.5" ry="2.5" style="stroke:#181818;stroke-width:0.5;" width="156" x="7" y="436.26"></rect><ellipse cx="41.8" cy="452.26" fill="#ADD1B2" rx="11" ry="11" style="stroke:#181818;stroke-width:1.0;"></ellipse><path d="M45.9094,458.26 L38.1906,458.26 L38.1906,445.8694 L45.9094,445.8694 L45.9094,448.0256 L40.6438,448.0256 L40.6438,450.6975 L45.4094,450.6975 L45.4094,452.8538 L40.6438,452.8538 L40.6438,456.1038 L45.9094,456.1038 L45.9094,458.26 Z " fill="#000000"></path><text fill="#000000" font-family="sans-serif" font-size="14" lengthAdjust="spacing" textLength="80" x="60.2" y="457.1067">Attachment</text><line style="stroke:#181818;stroke-width:0.5;" x1="8" x2="162" y1="468.26" y2="468.26"></line><ellipse cx="18" cy="481.9084" fill="none" rx="3" ry="3" style="stroke:#038048;stroke-width:1.0;"></ellipse><text fill="#000000" font-family="sans-serif" font-size="14" lengthAdjust="spacing" textLength="130" x="27" y="485.2551">attachment_id [PK]</text><line style="stroke:#181818;stroke-width:1.0;" x1="8" x2="162" y1="492.5569" y2="492.5569"></line><text fill="#000000" font-family="sans-serif" font-size="14" lengthAdjust="spacing" textLength="65" x="13" y="509.552">file_name</text><text fill="#000000" font-family="sans-serif" font-size="14" lengthAdjust="spacing" textLength="56" x="13" y="525.8489">file_type</text><text fill="#000000" font-family="sans-serif" font-size="14" lengthAdjust="spacing" textLength="54" x="13" y="542.1457">file_size</text></g><!--class Comment--><g id="elem_Comment"><rect codeline="35" fill="#F1F1F1" height="96.8906" id="Comment" rx="2.5" ry="2.5" style="stroke:#181818;stroke-width:0.5;" width="143" x="198.5" y="444.41"></rect><ellipse cx="232.85" cy="460.41" fill="#ADD1B2" rx="11" ry="11" style="stroke:#181818;stroke-width:1.0;"></ellipse><path d="M236.9594,466.41 L229.2406,466.41 L229.2406,454.0194 L236.9594,454.0194 L236.9594,456.1756 L231.6938,456.1756 L231.6938,458.8475 L236.4594,458.8475 L236.4594,461.0038 L231.6938,461.0038 L231.6938,464.2538 L236.9594,464.2538 L236.9594,466.41 Z " fill="#000000"></path><text fill="#000000" font-family="sans-serif" font-size="14" lengthAdjust="spacing" textLength="68" x="251.15" y="465.2567">Comment</text><line style="stroke:#181818;stroke-width:0.5;" x1="199.5" x2="340.5" y1="476.41" y2="476.41"></line><ellipse cx="209.5" cy="490.0584" fill="none" rx="3" ry="3" style="stroke:#038048;stroke-width:1.0;"></ellipse><text fill="#000000" font-family="sans-serif" font-size="14" lengthAdjust="spacing" textLength="117" x="218.5" y="493.4051">comment_id [PK]</text><line style="stroke:#181818;stroke-width:1.0;" x1="199.5" x2="340.5" y1="500.7069" y2="500.7069"></line><text fill="#000000" font-family="sans-serif" font-size="14" lengthAdjust="spacing" textLength="54" x="204.5" y="517.702">content</text><text fill="#000000" font-family="sans-serif" font-size="14" lengthAdjust="spacing" textLength="91" x="204.5" y="533.9989">created_date</text></g><!--class BugDB--><g id="elem_BugDB"><rect codeline="42" fill="#F1F1F1" height="80.5938" id="BugDB" rx="2.5" ry="2.5" style="stroke:#181818;stroke-width:0.5;" width="397" x="376.5" y="452.56"></rect><ellipse cx="521.75" cy="468.56" fill="#ADD1B2" rx="11" ry="11" style="stroke:#181818;stroke-width:1.0;"></ellipse><path d="M525.8594,474.56 L518.1406,474.56 L518.1406,462.1694 L525.8594,462.1694 L525.8594,464.3256 L520.5938,464.3256 L520.5938,466.9975 L525.3594,466.9975 L525.3594,469.1538 L520.5938,469.1538 L520.5938,472.4038 L525.8594,472.4038 L525.8594,474.56 Z " fill="#000000"></path><text fill="#000000" font-family="sans-serif" font-size="14" lengthAdjust="spacing" textLength="98" x="542.25" y="473.4067">Bug Database</text><line style="stroke:#181818;stroke-width:0.5;" x1="377.5" x2="772.5" y1="484.56" y2="484.56"></line><ellipse cx="387.5" cy="498.2084" fill="none" rx="3" ry="3" style="stroke:#038048;stroke-width:1.0;"></ellipse><text fill="#000000" font-family="sans-serif" font-size="14" lengthAdjust="spacing" textLength="78" x="396.5" y="501.5551">bug_id [PK]</text><line style="stroke:#181818;stroke-width:1.0;" x1="377.5" x2="772.5" y1="508.8569" y2="508.8569"></line><text fill="#000000" font-family="sans-serif" font-size="14" lengthAdjust="spacing" textLength="385" x="382.5" y="525.852">// Additional attributes for bug tracking system database</text></g><!--link User to Bug--><g id="link_User_Bug"><path codeline="48" d="M210.28,120.46 C219.19,143.84 229.71,171.45 239.42,196.94 " fill="none" id="User-Bug" style="stroke:#181818;stroke-width:1.0;"></path><text fill="#000000" font-family="sans-serif" font-size="13" lengthAdjust="spacing" textLength="49" x="229" y="163.2469">Reports</text></g><!--link Developer to Bug--><g id="link_Developer_Bug"><path codeline="49" d="M332.82,112.31 C323.35,137.17 311.52,168.24 300.68,196.69 " fill="none" id="Developer-Bug" style="stroke:#181818;stroke-width:1.0;"></path><text fill="#000000" font-family="sans-serif" font-size="13" lengthAdjust="spacing" textLength="56" x="318" y="163.2469">Resolves</text></g><!--link Bug to Attachment--><g id="link_Bug_Attachment"><path codeline="50" d="M215.74,341.58 C189.73,371.48 158.82,407.01 133.58,436.02 " fill="none" id="Bug-Attachment" style="stroke:#181818;stroke-width:1.0;"></path><text fill="#000000" font-family="sans-serif" font-size="13" lengthAdjust="spacing" textLength="25" x="173" y="402.3269">Has</text></g><!--link Bug to Comment--><g id="link_Bug_Comment"><path codeline="51" d="M270,359.61 C270,388.07 270,419.17 270,444.06 " fill="none" id="Bug-Comment" style="stroke:#181818;stroke-width:1.0;"></path><text fill="#000000" font-family="sans-serif" font-size="13" lengthAdjust="spacing" textLength="25" x="271" y="402.3269">Has</text></g><!--link Bug to BugDB--><g id="link_Bug_BugDB"><path codeline="52" d="M324.18,316.99 C378.7,355 462.45,413.39 517.96,452.09 " fill="none" id="Bug-BugDB" style="stroke:#181818;stroke-width:1.0;"></path><text fill="#000000" font-family="sans-serif" font-size="13" lengthAdjust="spacing" textLength="58" x="450" y="402.3269">Stored in</text></g><!--SRC=[XLB1QeGm5Bpx5O-z5jdxtdRheT1BQUcf57cQjzjGDPBtt69B_xr9rAYiK0ycCvAPDsEe4Iqzx5wPx0wGmM_W9m7tt47dGAuLl3qzlWSgJSFY-GPh2g15vYzZLG1KewwItoIXKJYZArMc7TKZYXPgOhPyeiUDxAcx146tHgcYkso9k0FLeAA8IwjRqQO9c0Mbuo64rSOwvG1AIoYaSkNUGzvMpSHYYgC8bX-rWs6O6SQPC59RevrrHNaC6P3qxGAn_buPtfiwketxQ5KEUCkdD8suJxVXrer2Xe85CatLPgV_ojtluQYKzfLYvTDQNNH236TZ_HaGY-MdRYx0FGlLe4OBRntkMfg6dtY0PsgD5KxcExBunAQw4YSUEdPHz04UCF9J9Ijoo7605p6M5EZc3m00]--></g></svg>