<!--?xml version="1.0" encoding="us-ascii" standalone="no"?--><svg xmlns="http://www.w3.org/2000/svg" xmlns:xlink="http://www.w3.org/1999/xlink" contentstyletype="text/css" height="690px" preserveAspectRatio="none" style="width:316px;height:690px;background:#FFFFFF;" version="1.1" viewBox="0 0 316 690" width="316px" zoomAndPan="magnify"><defs></defs><g><!--cluster Bug Tracking System--><g id="cluster_Bug Tracking System"><rect fill="none" height="677" rx="2.5" ry="2.5" style="stroke:#181818;stroke-width:1.0;" width="189.93" x="121" y="7"></rect><text fill="#000000" font-family="sans-serif" font-size="14" font-weight="bold" lengthAdjust="spacing" textLength="166" x="132.965" y="21.9951">Bug Tracking System</text></g><g id="elem_Create"><ellipse cx="215.9653" cy="189.9971" fill="#F1F1F1" rx="64.7353" ry="15.3471" style="stroke:#181818;stroke-width:0.5;"></ellipse><text fill="#000000" font-family="sans-serif" font-size="14" lengthAdjust="spacing" textLength="78" x="173.9653" y="193.7446">Create Bug</text></g><g id="elem_Assign"><ellipse cx="215.9653" cy="123.9971" fill="#F1F1F1" rx="64.7353" ry="15.3471" style="stroke:#181818;stroke-width:0.5;"></ellipse><text fill="#000000" font-family="sans-serif" font-size="14" lengthAdjust="spacing" textLength="78" x="173.9653" y="127.7446">Assign Bug</text></g><g id="elem_Resolve"><ellipse cx="215.9707" cy="57.9961" fill="#F1F1F1" rx="67.8807" ry="15.9761" style="stroke:#181818;stroke-width:0.5;"></ellipse><text fill="#000000" font-family="sans-serif" font-size="14" lengthAdjust="spacing" textLength="87" x="169.4707" y="61.7437">Resolve Bug</text></g><g id="elem_Close"><ellipse cx="215.9696" cy="453.0019" fill="#F1F1F1" rx="62.4096" ry="14.8819" style="stroke:#181818;stroke-width:0.5;"></ellipse><text fill="#000000" font-family="sans-serif" font-size="14" lengthAdjust="spacing" textLength="71" x="177.4696" y="456.7495">Close Bug</text></g><g id="elem_View"><ellipse cx="215.9665" cy="517.9966" fill="#F1F1F1" rx="57.8265" ry="14.7566" style="stroke:#181818;stroke-width:0.5;"></ellipse><text fill="#000000" font-family="sans-serif" font-size="14" lengthAdjust="spacing" textLength="64" x="180.9665" y="521.7441">View Bug</text></g><g id="elem_Edit"><ellipse cx="215.9672" cy="582.0015" fill="#F1F1F1" rx="53.3472" ry="14.7215" style="stroke:#181818;stroke-width:0.5;"></ellipse><text fill="#000000" font-family="sans-serif" font-size="14" lengthAdjust="spacing" textLength="58" x="183.9672" y="585.749">Edit Bug</text></g><g id="elem_Delete"><ellipse cx="215.9653" cy="255.9971" fill="#F1F1F1" rx="64.7353" ry="15.3471" style="stroke:#181818;stroke-width:0.5;"></ellipse><text fill="#000000" font-family="sans-serif" font-size="14" lengthAdjust="spacing" textLength="78" x="173.9653" y="259.7446">Delete Bug</text></g><g id="elem_Reopen"><ellipse cx="215.9707" cy="321.9961" fill="#F1F1F1" rx="67.8807" ry="15.9761" style="stroke:#181818;stroke-width:0.5;"></ellipse><text fill="#000000" font-family="sans-serif" font-size="14" lengthAdjust="spacing" textLength="87" x="169.4707" y="325.7437">Reopen Bug</text></g><g id="elem_Search"><ellipse cx="215.97" cy="388.004" fill="#F1F1F1" rx="65.42" ry="15.484" style="stroke:#181818;stroke-width:0.5;"></ellipse><text fill="#000000" font-family="sans-serif" font-size="14" lengthAdjust="spacing" textLength="80" x="172.97" y="391.7516">Search Bug</text></g><g id="elem_Report"><ellipse cx="215.9652" cy="650.003" fill="#F1F1F1" rx="78.9652" ry="18.193" style="stroke:#181818;stroke-width:0.5;"></ellipse><text fill="#000000" font-family="sans-serif" font-size="14" lengthAdjust="spacing" textLength="116" x="155.9" y="653.4986">Generate Report</text></g><!--entity Dev--><g id="elem_Dev"><ellipse cx="41.5" cy="302.35" fill="#F1F1F1" rx="8" ry="8" style="stroke:#181818;stroke-width:0.5;"></ellipse><path d="M41.5,310.35 L41.5,337.35 M28.5,318.35 L54.5,318.35 M41.5,337.35 L28.5,352.35 M41.5,337.35 L54.5,352.35 " fill="none" style="stroke:#181818;stroke-width:0.5;"></path><text fill="#000000" font-family="sans-serif" font-size="14" lengthAdjust="spacing" textLength="71" x="6" y="366.8451">Developer</text></g><!--entity Test--><g id="elem_Test"><ellipse cx="41.5" cy="61.35" fill="#F1F1F1" rx="8" ry="8" style="stroke:#181818;stroke-width:0.5;"></ellipse><path d="M41.5,69.35 L41.5,96.35 M28.5,77.35 L54.5,77.35 M41.5,96.35 L28.5,111.35 M41.5,96.35 L54.5,111.35 " fill="none" style="stroke:#181818;stroke-width:0.5;"></path><text fill="#000000" font-family="sans-serif" font-size="14" lengthAdjust="spacing" textLength="45" x="19" y="125.8451">Tester</text></g><!--entity Mgr--><g id="elem_Mgr"><ellipse cx="41.5" cy="423.35" fill="#F1F1F1" rx="8" ry="8" style="stroke:#181818;stroke-width:0.5;"></ellipse><path d="M41.5,431.35 L41.5,458.35 M28.5,439.35 L54.5,439.35 M41.5,458.35 L28.5,473.35 M41.5,458.35 L54.5,473.35 " fill="none" style="stroke:#181818;stroke-width:0.5;"></path><text fill="#000000" font-family="sans-serif" font-size="14" lengthAdjust="spacing" textLength="60" x="11.5" y="487.8451">Manager</text></g><!--link Dev to Create--><g id="link_Dev_Create"><path d="M59.09,293.6 C70.99,270.18 89.14,241.32 113,223 C126.01,213.01 142.16,205.98 157.73,201.07 " fill="none" id="Dev-to-Create" style="stroke:#181818;stroke-width:1.0;"></path><polygon fill="#181818" points="162.44,199.35,152.6719,198.0914,157.6489,200.7802,154.9602,205.7572,162.44,199.35" style="stroke:#181818;stroke-width:1.0;"></polygon></g><!--link Dev to Assign--><g id="link_Dev_Assign"><path d="M48.26,293.55 C56.16,254.03 74.07,193.3 113,157 C124.64,146.15 139.87,138.87 155.01,133.98 " fill="none" id="Dev-to-Assign" style="stroke:#181818;stroke-width:1.0;"></path><polygon fill="#181818" points="159.57,132.28,149.7951,131.0749,154.7868,133.7364,152.1253,138.728,159.57,132.28" style="stroke:#181818;stroke-width:1.0;"></polygon></g><!--link Test to Assign--><g id="link_Test_Assign"><path d="M64.34,95.18 C87.99,99.7 126.65,107.1 158.88,113.27 " fill="none" id="Test-to-Assign" style="stroke:#181818;stroke-width:1.0;"></path><polygon fill="#181818" points="163.41,114.33,155.3249,108.7058,158.4996,113.3879,153.8175,116.5625,163.41,114.33" style="stroke:#181818;stroke-width:1.0;"></polygon></g><!--link Test to Resolve--><g id="link_Test_Resolve"><path d="M64.34,86.82 C87.38,82.41 124.67,75.28 156.38,69.21 " fill="none" id="Test-to-Resolve" style="stroke:#181818;stroke-width:1.0;"></path><polygon fill="#181818" points="161.23,68.09,151.6375,65.8575,156.3196,69.0321,153.1449,73.7142,161.23,68.09" style="stroke:#181818;stroke-width:1.0;"></polygon></g><!--link Dev to Close--><g id="link_Dev_Close"><path d="M65.17,370.21 C77.36,387.88 93.84,407.82 113,421 C127.01,430.64 144.05,437.47 160.17,442.28 " fill="none" id="Dev-to-Close" style="stroke:#181818;stroke-width:1.0;"></path><polygon fill="#181818" points="164.59,443.83,157.0526,437.4907,159.7862,442.4432,154.8337,445.1768,164.59,443.83" style="stroke:#181818;stroke-width:1.0;"></polygon></g><!--link Mgr to Close--><g id="link_Mgr_Close"><path d="M71.76,453 C92.48,453 121.16,453 147.42,453 " fill="none" id="Mgr-to-Close" style="stroke:#181818;stroke-width:1.0;"></path><polygon fill="#181818" points="152.33,453,143.33,449,147.33,453,143.33,457,152.33,453" style="stroke:#181818;stroke-width:1.0;"></polygon></g><!--link Dev to View--><g id="link_Dev_View"><path d="M63.76,370.52 C68.29,379.15 72.93,388.32 77,397 C94.93,435.27 82.02,456.27 113,485 C125.75,496.82 142.77,504.41 159.26,509.28 " fill="none" id="Dev-to-View" style="stroke:#181818;stroke-width:1.0;"></path><polygon fill="#181818" points="163.82,510.83,156.2256,504.559,159.0038,509.4866,154.0762,512.2648,163.82,510.83" style="stroke:#181818;stroke-width:1.0;"></polygon></g><!--link Dev to Edit--><g id="link_Dev_Edit"><path d="M64.97,370.43 C69.39,378.99 73.67,388.15 77,397 C101.58,462.39 65.44,498.83 113,550 C125.14,563.06 142.55,570.83 159.54,575.43 " fill="none" id="Dev-to-Edit" style="stroke:#181818;stroke-width:1.0;"></path><polygon fill="#181818" points="164.28,576.88,156.5231,570.8112,159.4301,575.664,154.5774,578.571,164.28,576.88" style="stroke:#181818;stroke-width:1.0;"></polygon></g><!--link Dev to Delete--><g id="link_Dev_Delete"><path d="M77.47,308.44 C88.54,301.6 101.01,294.5 113,289 C129.79,281.29 148.89,274.6 165.99,269.3 " fill="none" id="Dev-to-Delete" style="stroke:#181818;stroke-width:1.0;"></path><polygon fill="#181818" points="170.7,267.55,160.9241,266.3531,165.918,269.0104,163.2607,274.0042,170.7,267.55" style="stroke:#181818;stroke-width:1.0;"></polygon></g><!--link Dev to Reopen--><g id="link_Dev_Reopen"><path d="M77.4,329.98 C96.55,328.87 121,327.45 143.97,326.12 " fill="none" id="Dev-to-Reopen" style="stroke:#181818;stroke-width:1.0;"></path><polygon fill="#181818" points="148.77,325.78,139.5466,322.3262,143.779,326.0795,140.0257,330.3118,148.77,325.78" style="stroke:#181818;stroke-width:1.0;"></polygon></g><!--link Dev to Search--><g id="link_Dev_Search"><path d="M77.28,343.36 C88.66,347.08 101.37,351.22 113,355 C131.92,361.15 152.83,367.92 170.76,373.72 " fill="none" id="Dev-to-Search" style="stroke:#181818;stroke-width:1.0;"></path><polygon fill="#181818" points="175.22,375.49,167.8751,368.9285,170.4597,373.9604,165.4278,376.545,175.22,375.49" style="stroke:#181818;stroke-width:1.0;"></polygon></g><!--link Mgr to View--><g id="link_Mgr_View"><path d="M71.68,467.14 C84.26,473 99.21,479.66 113,485 C131.87,492.31 153.11,499.36 171.3,505.06 " fill="none" id="Mgr-to-View" style="stroke:#181818;stroke-width:1.0;"></path><polygon fill="#181818" points="175.84,506.78,168.4361,500.2852,171.0661,505.2935,166.0577,507.9235,175.84,506.78" style="stroke:#181818;stroke-width:1.0;"></polygon></g><!--link Mgr to Edit--><g id="link_Mgr_Edit"><path d="M62.39,491.27 C74.57,511.33 91.87,534.81 113,550 C128.09,560.84 146.97,568.1 164.38,572.92 " fill="none" id="Mgr-to-Edit" style="stroke:#181818;stroke-width:1.0;"></path><polygon fill="#181818" points="168.73,574.34,161.0577,568.1645,163.8974,573.057,159.0049,575.8967,168.73,574.34" style="stroke:#181818;stroke-width:1.0;"></polygon></g><!--link Mgr to Delete--><g id="link_Mgr_Delete"><path d="M64.01,414.6 C68.53,405.96 73.11,396.76 77,388 C96.02,345.22 79.31,321.51 113,289 C124.39,278.01 139.47,270.68 154.52,265.79 " fill="none" id="Mgr-to-Delete" style="stroke:#181818;stroke-width:1.0;"></path><polygon fill="#181818" points="159.06,264.1,149.2851,262.8949,154.2768,265.5564,151.6153,270.548,159.06,264.1" style="stroke:#181818;stroke-width:1.0;"></polygon></g><!--link Mgr to Reopen--><g id="link_Mgr_Reopen"><path d="M62.36,414.4 C74.53,394.16 91.83,370.44 113,355 C125.92,345.58 141.66,338.76 156.87,333.87 " fill="none" id="Mgr-to-Reopen" style="stroke:#181818;stroke-width:1.0;"></path><polygon fill="#181818" points="161.44,332.15,151.6577,331.0065,156.6661,333.6365,154.0361,338.6448,161.44,332.15" style="stroke:#181818;stroke-width:1.0;"></polygon></g><!--link Mgr to Search--><g id="link_Mgr_Search"><path d="M71.68,438.86 C84.26,433 99.21,426.34 113,421 C130.92,414.06 150.99,407.34 168.55,401.8 " fill="none" id="Mgr-to-Search" style="stroke:#181818;stroke-width:1.0;"></path><polygon fill="#181818" points="172.91,400.12,163.1247,399.0032,168.1401,401.6195,165.5239,406.635,172.91,400.12" style="stroke:#181818;stroke-width:1.0;"></polygon></g><!--link Mgr to Report--><g id="link_Mgr_Report"><path d="M50.14,491.63 C59.22,527.88 77.79,581.29 113,614 C123.44,623.7 136.66,630.82 150.08,636.02 " fill="none" id="Mgr-to-Report" style="stroke:#181818;stroke-width:1.0;"></path><polygon fill="#181818" points="154.44,638,147.3806,631.1323,149.749,636.2695,144.6118,638.6379,154.44,638" style="stroke:#181818;stroke-width:1.0;"></polygon></g><!--SRC=[TP71JaCX44NtVCNaxViB9cgDgsxQfdloEb8YGWEqnXZ_NIRCpEF5kEFSkLpW4l2jGasGlRjKEFkCS_Kf6ZlNb66BTmpfYXbi8M3vYALsZLOixcoqhgixbusX91jTG9YURWwEsSxlFZeuVBND7nDy6u1RmTcMvdZEQ2j2CquKq74qF9RYNLH3nz6mnvB2VObWNXqIKXdE81h79u-VEYKOXozdNtL8C0wt672uVSVrvLg9SRWRuMWueCtpHGqTHyChHinKqHwlALUEeQLfjlOriDayBBs9e3tHH_sZB4rf35VJ_d75CkTo1BaEGNs-2FfS4VHvSW072dAWe0QAe84Y_0daQdv-0G00]--></g></svg>